<svg xmlns="http://www.w3.org/2000/svg" viewBox="0 0 89.37 179.15"><defs><style>.cls-1{fill:#fff;}</style></defs><title>facebook</title><g id="Layer_2" data-name="Layer 2"><g id="Layer_1-2" data-name="Layer 1"><path class="cls-1" d="M89.37,65.63q0,14.34,0,28.68c0,.32,0,.64-.07,1H55.74V179h.43v.16h-34V179c.32-.09.38-.35.38-.81q0-41,0-82c0-.84,0-.84-.88-.84H.86c-.86,0-.86,0-.86-.85V65.69c0-.87,0-.87.84-.87h21.7V64c0-2.49,0-5,0-7.48A92,92,0,0,1,24.45,36.6a60.06,60.06,0,0,1,6.19-16.84,32.71,32.71,0,0,1,7.49-9.53A40.42,40.42,0,0,1,54.47,2.4,83.77,83.77,0,0,1,74.66,0c4.62,0,9.23.17,13.84.26.85,0,.86,0,.86.91V30c0,.35,0,.69-.06,1.08-.31,0-.56,0-.82,0l-4.25-.29a52.88,52.88,0,0,0-15.32,1,16.58,16.58,0,0,0-10,6.56,15,15,0,0,0-2.63,8.44C56,52.53,55.88,58.25,55.7,64c0,.26,0,.51,0,.84h.92q15.95,0,31.89,0C89.16,64.81,89.37,65,89.37,65.63Z"/></g></g></svg>