<svg xmlns="http://www.w3.org/2000/svg" viewBox="0 0 140.72 142.91"><defs><style>.cls-1{fill:#fff;}</style></defs><title>instagram</title><g id="Layer_2" data-name="Layer 2"><g id="Layer_1-2" data-name="Layer 1"><path class="cls-1" d="M70.25,0C83,.6,96,.24,108.58,2c18.1,2.6,30.55,15.49,31.36,33.65,1.07,23.89,1,47.91-.08,71.81-.78,17.18-13.54,30.54-30.58,32.82a288.59,288.59,0,0,1-76.17.14c-19.9-2.64-32-16.81-32.63-36.93q-1-32.19,0-64.42C1.18,16.83,16,2.33,38.27,1.22c10.62-.53,21.3-.09,31.95-.09Zm.15,128.54v.06c10,0,20,.39,30-.09,17.76-.85,27-10,27.46-27.67q.71-30,0-59.94C127.5,25.13,119,15,103.22,14.14a624.91,624.91,0,0,0-65.87.13c-15.5.83-23.64,10.37-24,26q-.79,30.93,0,61.9c.37,15.91,9.84,25.39,25.68,26.22C49.4,129,59.91,128.54,70.4,128.54Z"/><path class="cls-1" d="M70.15,107.55c-19.63,0-36.07-16.41-36-35.91C34.18,50.83,50,35,70.75,34.84c19.53-.11,35.91,16.22,36,35.92A36.18,36.18,0,0,1,70.15,107.55Zm.48-12.94C83.3,94.67,94,84.06,94,71.54a23.49,23.49,0,1,0-47-.72C47,84.39,57.12,94.56,70.63,94.62Z"/><path class="cls-1" d="M108.6,24.94a8.42,8.42,0,0,1,8,9,8.57,8.57,0,0,1-8.62,8,8.75,8.75,0,0,1-8.38-8.8A8.64,8.64,0,0,1,108.6,24.94Z"/></g></g></svg>