<svg xmlns="http://www.w3.org/2000/svg" viewBox="0 0 117.04 123.7"><defs><style>.cls-1{fill:#fff;}</style></defs><title>linkedin</title><g id="Layer_2" data-name="Layer 2"><g id="Layer_1-2" data-name="Layer 1"><path class="cls-1" d="M65.45,43.35c2.82-7.06,8.23-10.17,15.66-10.74,5.86-.44,11.72-1,17.38.92,10.39,3.53,15.31,11.61,17.14,21.82a90.57,90.57,0,0,1,1.32,15c.16,16.68.06,33.36.06,50,0,3.24,0,3.25-3.22,3.25-6.67,0-13.34-.07-20,0-2.09,0-2.79-.52-2.78-2.72.09-16.19.07-32.38,0-48.57a34.13,34.13,0,0,0-.51-5.82,8.45,8.45,0,0,0-8-7.21,56.4,56.4,0,0,0-10.15.52c-3.44.5-7.07,4-7,9,.2,17.16.08,34.33.07,51.5,0,3.28,0,3.29-3.18,3.3-6.75,0-13.51-.06-20.26,0-2.15,0-3-.52-3-2.85q.09-43,0-85.9c0-2.09.53-2.82,2.73-2.78,7.16.14,14.32.1,21.48,0,1.84,0,2.42.6,2.35,2.39C65.37,37.49,65.45,40.42,65.45,43.35Z"/><path class="cls-1" d="M26.28,32.41v90.91a7.9,7.9,0,0,1-1.5.31c-7.57,0-15.13,0-22.7,0-2,0-2-1.12-2-2.53q0-20.13,0-40.27,0-22.81-.08-45.62c0-.88,0-1.77,0-2.84Z"/><path class="cls-1" d="M26.45,13.27a13.16,13.16,0,0,1-13.3,13.28A13.38,13.38,0,0,1,0,13.29,13.42,13.42,0,0,1,13.15,0,13.17,13.17,0,0,1,26.45,13.27Z"/></g></g></svg>