<svg xmlns="http://www.w3.org/2000/svg" viewBox="0 0 120.24 39.02"><defs><style>.cls-1{font-size:28px;font-family:SegoeScript-Bold, Segoe Script;font-weight:700;}.cls-1,.cls-3{fill:#231f20;}.cls-2{letter-spacing:-0.06em;}</style></defs><title>Asset 4</title><g id="Layer_2" data-name="Layer 2"><g id="Layer_1-2" data-name="Layer 1"><text class="cls-1" transform="translate(0 25.16)"><tspan class="cls-2">W</tspan><tspan x="26.67" y="0">atchie</tspan></text><path class="cls-3" d="M95.73,1.29A2.76,2.76,0,0,1,96.89.21a1.93,1.93,0,0,1,2.43.52,2.83,2.83,0,0,1,.36,1.18,16.8,16.8,0,0,1,.15,2.49h2.57c1.12,0,2.94.8,2.41,2.24-.33.89-1.27,1-2.07,1.19a8,8,0,0,0-5.29,3.24,11.56,11.56,0,0,1-2.24-5.63A7,7,0,0,1,95.73,1.29Z"/></g></g></svg>