<svg xmlns="http://www.w3.org/2000/svg" viewBox="0 0 128.6 56.48"><defs><style>.cls-1{font-size:50px;font-family:FrenchScriptMT, French Script MT;letter-spacing:-0.01em;}.cls-1,.cls-4{fill:#231f20;}.cls-2{letter-spacing:0.01em;}.cls-3{letter-spacing:0.03em;}</style></defs><title>Asset 3</title><g id="Layer_2" data-name="Layer 2"><g id="Layer_1-2" data-name="Layer 1"><text class="cls-1" transform="translate(0 41.22)">W<tspan class="cls-2" x="41" y="0">a</tspan><tspan class="cls-3" x="58.8" y="0">tchie</tspan></text><path class="cls-4" d="M106.49,18.83a2.76,2.76,0,0,1,1.15-1.08,1.93,1.93,0,0,1,2.43.52,2.83,2.83,0,0,1,.36,1.18,16.8,16.8,0,0,1,.15,2.49h2.57c1.12,0,2.94.8,2.41,2.24-.33.89-1.27,1-2.07,1.19a8,8,0,0,0-5.29,3.24A11.56,11.56,0,0,1,106,23,7,7,0,0,1,106.49,18.83Z"/></g></g></svg>