<svg xmlns="http://www.w3.org/2000/svg" viewBox="0 0 156.51 127.43"><defs><style>.cls-1{fill:#fff;}</style></defs><title>twitter</title><g id="Layer_2" data-name="Layer 2"><g id="Layer_1-2" data-name="Layer 1"><path class="cls-1" d="M0,113c17.7,1.66,33.25-2.66,47.33-13.29-14.75-1.25-24.6-8.54-29.84-21.88,2.47,0,4.76.1,7,0a56.05,56.05,0,0,0,6.77-.9C15.56,72.06,7.06,61.62,5.92,44.83c4.68,2.25,9.22,3.82,14.27,4C6,37,2.69,22.78,10.5,5.81,28.1,26.39,50,37.7,76.79,39.53c-.17-2.67-.44-5.1-.47-7.53A31.87,31.87,0,0,1,102.07.64c11.1-2.05,20.78.85,28.92,8.69a2.26,2.26,0,0,0,2.4.54A64.71,64.71,0,0,0,151.14,3c.26-.15.54-.29,1.15-.61a34.78,34.78,0,0,1-13.54,17.77c1.92-.36,3.86-.66,5.76-1.1s4-1,6-1.63,3.78-1.37,6-2.17a53.11,53.11,0,0,1-12.25,13.51c-2.82,2.09-3.69,4.29-3.67,7.73a89.34,89.34,0,0,1-8.11,37,91.17,91.17,0,0,1-27.19,35.23A86,86,0,0,1,65,126.16a96.32,96.32,0,0,1-29,.33A91.8,91.8,0,0,1,1.09,113.82C.84,113.67.6,113.48,0,113Z"/></g></g></svg>